HIERARCHY
ROOT Hips
{
	OFFSET 0.000000 0.000000 0.000000
	CHANNELS 6 Xposition Yposition Zposition Zrotation Yrotation Xrotation 
	JOINT LHipJoint
	{
		OFFSET 0.000000 0.000000 0.000000
		CHANNELS 3 Zrotation Yrotation Xrotation
		JOINT LeftUpLeg
		{
			OFFSET 1.363060 -1.794630 0.839290
			CHANNELS 3 Zrotation Yrotation Xrotation
			JOINT LeftLeg
			{
				OFFSET 2.448110 -6.726130 0.000000
				CHANNELS 3 Zrotation Yrotation Xrotation
				JOINT LeftFoot
				{
					OFFSET 2.562200 -7.039590 0.000000
					CHANNELS 3 Zrotation Yrotation Xrotation
					JOINT LeftToeBase
					{
						OFFSET 0.157640 -0.433110 2.322550
						CHANNELS 3 Zrotation Yrotation Xrotation
						End Site
						{
							OFFSET 0.000000 0.000000 0.000000
						}
					}
				}
			}
		}
	}
	JOINT RHipJoint
	{
		OFFSET 0.000000 0.000000 0.000000
		CHANNELS 3 Zrotation Yrotation Xrotation
		JOINT RightUpLeg
		{
			OFFSET -1.305520 -1.794630 0.839290
			CHANNELS 3 Zrotation Yrotation Xrotation
			JOINT RightLeg
			{
				OFFSET -2.542530 -6.985550 0.000000
				CHANNELS 3 Zrotation Yrotation Xrotation
				JOINT RightFoot
				{
					OFFSET -2.568260 -7.056230 0.000000
					CHANNELS 3 Zrotation Yrotation Xrotation
					JOINT RightToeBase
					{
						OFFSET -0.164730 -0.452590 2.363150
						CHANNELS 3 Zrotation Yrotation Xrotation
						End Site
						{
							OFFSET 0.000000 0.000000 0.000000
						}
					}
				}
			}
		}
	}
	JOINT LowerBack
	{
		OFFSET 0.000000 0.000000 0.000000
		CHANNELS 3 Zrotation Yrotation Xrotation
		JOINT Spine
		{
			OFFSET 0.028270 2.035590 -0.193380
			CHANNELS 3 Zrotation Yrotation Xrotation
			JOINT Spine1
			{
				OFFSET 0.056720 2.048850 -0.042750
				CHANNELS 3 Zrotation Yrotation Xrotation
				JOINT Neck
				{
					OFFSET 0.000000 0.000000 0.000000
					CHANNELS 3 Zrotation Yrotation Xrotation
					JOINT Neck1
					{
						OFFSET -0.054170 1.746240 0.172020
						CHANNELS 3 Zrotation Yrotation Xrotation
						JOINT Head
						{
							OFFSET 0.104070 1.761360 -0.123970
							CHANNELS 3 Zrotation Yrotation Xrotation
							End Site
							{
								OFFSET 0.000000 0.000000 0.000000
							}
						}
					}
				}
				JOINT LeftShoulder
				{
					OFFSET 0.000000 0.000000 0.000000
					CHANNELS 3 Zrotation Yrotation Xrotation
					JOINT LeftArm
					{
						OFFSET 3.362410 1.200890 -0.311210
						CHANNELS 3 Zrotation Yrotation Xrotation
						JOINT LeftForeArm
						{
							OFFSET 4.983000 -0.000000 -0.000000
							CHANNELS 3 Zrotation Yrotation Xrotation
							JOINT LeftHand
							{
								OFFSET 3.483560 -0.000000 -0.000000
								CHANNELS 3 Zrotation Yrotation Xrotation
								JOINT LeftFingerBase
								{
									OFFSET 0.000000 0.000000 0.000000
									CHANNELS 3 Zrotation Yrotation Xrotation
									JOINT LeftHandIndex1
									{
										OFFSET 0.715260 -0.000000 -0.000000
										CHANNELS 3 Zrotation Yrotation Xrotation
										End Site
										{
											OFFSET 0.000000 0.000000 0.000000
										}
									}
								}
								JOINT LThumb
								{
									OFFSET 0.000000 0.000000 0.000000
									CHANNELS 3 Zrotation Yrotation Xrotation
									End Site
									{
										OFFSET 0.000000 0.000000 0.000000
									}
								}
							}
						}
					}
				}
				JOINT RightShoulder
				{
					OFFSET 0.000000 0.000000 0.000000
					CHANNELS 3 Zrotation Yrotation Xrotation
					JOINT RightArm
					{
						OFFSET -3.136600 1.374050 -0.404650
						CHANNELS 3 Zrotation Yrotation Xrotation
						JOINT RightForeArm
						{
							OFFSET -5.241900 -0.000000 -0.000000
							CHANNELS 3 Zrotation Yrotation Xrotation
							JOINT RightHand
							{
								OFFSET -3.444170 -0.000000 -0.000000
								CHANNELS 3 Zrotation Yrotation Xrotation
								JOINT RightFingerBase
								{
									OFFSET 0.000000 0.000000 0.000000
									CHANNELS 3 Zrotation Yrotation Xrotation
									JOINT RightHandIndex1
									{
										OFFSET -0.622530 -0.000000 -0.000000
										CHANNELS 3 Zrotation Yrotation Xrotation
										End Site
										{
											OFFSET 0.000000 0.000000 0.000000
										}
									}
								}
								JOINT RThumb
								{
									OFFSET 0.000000 0.000000 0.000000
									CHANNELS 3 Zrotation Yrotation Xrotation
									End Site
									{
										OFFSET 0.000000 0.000000 0.000000
									}
								}
							}
						}
					}
				}
			}
		}
	}
}
MOTION
Frames: 5
Frame Time: 0.008333
-0.298621 17.998431 -7.627822 -6.290904 -6.213439 0.930167 -0.095326 4.307339 2.805308 -9.376291 -6.802263 -30.753810 2.811060 11.965981 36.270737 -1.071394 5.536820 4.869807 0.001300 0.229300 0.629900 1.952562 -5.023601 5.130483 29.020237 11.745953 -4.335974 -0.977435 -5.810224 24.196282 -0.409022 0.095127 -0.702412 -0.239200 -3.147600 8.690000 5.005853 1.429736 6.417426 4.728274 2.593487 4.074554 -1.534910 1.120570 -8.581168 -5.238641 -3.979903 -16.197061 2.354559 -4.173412 19.781590 -0.396800 -1.750400 9.532400 -7.190910 2.915924 -1.257784 -81.961319 5.368343 17.448258 11.468821 -19.573871 -2.022839 -0.383374 -0.660697 -5.294180 25.878954 16.647864 8.357100 -7.125000 0.000000 0.000000 -1.578300 49.106200 -0.159900 11.070917 -1.711158 -2.211957 72.931002 7.222478 18.418574 -12.766742 25.331571 -3.389945 1.021667 -0.189921 -1.955268 -18.802748 20.805617 -7.328800 7.125000 0.000000 0.000000 5.578300 -7.961400 4.775200
-0.297826 17.998545 -7.535987 -6.313758 -6.228523 1.023804 -0.170255 4.278435 2.776243 -9.191019 -6.951111 -30.673571 2.429907 11.544109 34.776873 -1.081040 5.612245 5.023548 0.000617 0.062401 0.171426 1.982941 -5.031598 5.170185 28.979122 11.649721 -4.022532 -0.930076 -5.724454 23.943355 -0.412515 0.090272 -0.824937 -0.244435 -3.181344 8.784062 5.001074 1.429116 6.317478 4.756856 2.579872 4.137840 -1.501451 1.126198 -8.489304 -5.240931 -3.977746 -16.356819 2.334767 -4.148406 19.702447 -0.401921 -1.743685 9.536326 -7.199526 2.919453 -1.258632 -82.090999 5.300011 17.083248 11.293882 -19.305152 -1.958988 -0.392301 -0.667598 -5.019843 26.071828 17.021808 8.607818 -7.125000 0.000000 0.000000 -1.454022 49.554829 -0.162290 11.063246 -1.698260 -2.210562 72.777238 7.489074 18.804028 -12.924689 25.549390 -3.455289 1.028333 -0.196188 -2.001073 -19.097674 21.078078 -7.542246 7.125000 0.000000 0.000000 5.407816 -7.630675 4.662360
-0.296549 17.997129 -7.443476 -6.345681 -6.259715 1.123173 -0.245403 4.247845 2.744457 -8.993616 -7.100156 -30.604314 2.049520 11.113091 33.258818 -1.106365 5.747485 5.211508 0.002351 -0.169393 -0.465482 2.012435 -5.038324 5.209452 28.945183 11.548945 -3.716458 -0.885299 -5.642004 23.702661 -0.420591 0.101233 -0.938743 -0.249850 -3.216110 8.881010 5.015041 1.432629 6.216205 4.783066 2.574018 4.190942 -1.481272 1.134490 -8.400336 -5.241743 -3.975457 -16.480512 2.309240 -4.127022 19.611652 -0.409431 -1.739484 9.530284 -7.206912 2.921843 -1.259579 -82.211895 5.258982 16.749137 11.128588 -19.050651 -1.899205 -0.401047 -0.672414 -4.792777 26.262331 17.281161 8.803596 -7.125000 0.000000 0.000000 -1.309503 49.875697 -0.157555 11.055727 -1.686858 -2.209467 72.637111 7.751003 19.157081 -13.090979 25.778832 -3.527528 1.031121 -0.198591 -2.078454 -19.289935 21.257548 -7.680938 7.125000 0.000000 0.000000 5.297741 -7.414236 4.589934
-0.293766 17.990938 -7.348858 -6.405910 -6.341182 1.240429 -0.321238 4.211990 2.704174 -8.758347 -7.249816 -30.569335 1.671525 10.653526 31.665255 -1.180628 6.069424 5.506273 0.011626 -0.603739 -1.659323 2.039170 -5.041088 5.247362 28.933646 11.433987 -3.433385 -0.848584 -5.569922 23.500148 -0.442971 0.161561 -1.025339 -0.255825 -3.254064 8.986964 5.087519 1.449046 6.110797 4.801876 2.592384 4.212261 -1.502546 1.151093 -8.320408 -5.237942 -3.972755 -16.491640 2.265816 -4.116943 19.484490 -0.424397 -1.743126 9.493126 -7.210459 2.920682 -1.260833 -82.305375 5.303173 16.511468 10.993394 -18.840526 -1.852117 -0.409227 -0.670721 -4.713253 26.445436 17.182853 8.827894 -7.125000 0.000000 0.000000 -1.101804 49.797796 -0.130583 11.048677 -1.680125 -2.209312 72.539549 7.998363 19.409004 -13.283308 26.044555 -3.621288 1.021805 -0.188929 -2.254392 -19.161755 21.146771 -7.586307 7.125000 0.000000 0.000000 5.376211 -7.554503 4.643651
-0.291424 17.983976 -7.254129 -6.459458 -6.365581 1.364740 -0.401195 4.173921 2.659395 -8.516664 -7.468967 -30.519753 1.300631 10.173961 30.045121 -1.262531 6.418756 5.837537 0.029987 -1.055069 -2.901021 2.066473 -5.041645 5.282904 28.925947 11.304695 -3.190429 -0.818107 -5.508551 23.328363 -0.457784 0.190139 -1.157341 -0.235510 -3.112107 8.591927 5.161122 1.465261 6.030708 4.799553 2.614399 4.180725 -1.537882 1.165562 -8.287084 -5.183834 -3.970143 -16.416555 2.192170 -4.125848 19.346497 -0.458086 -1.755328 9.436002 -7.211522 2.917092 -1.262206 -82.368024 5.429631 16.361781 10.891104 -18.684283 -1.816064 -0.414926 -0.674508 -4.592902 26.589398 17.357493 8.968893 -7.125000 0.000000 0.000000 -0.988245 50.018110 -0.122140 11.044114 -1.679080 -2.211057 72.462894 8.185420 19.622291 -13.463840 26.293018 -3.709969 1.014169 -0.175528 -2.445727 -19.089740 20.961696 -7.489108 7.125000 0.000000 0.000000 5.412154 -7.767205 4.652439
